<?xml version="1.0" encoding="UTF-8"?>
<svg width="12px" height="13px" viewBox="0 0 12 13" version="1.1" xmlns="http://www.w3.org/2000/svg" xmlns:xlink="http://www.w3.org/1999/xlink">
    <!-- Generator: Sketch 48.2 (47327) - http://www.bohemiancoding.com/sketch -->
    <title>Group</title>
    <desc>Created with Sketch.</desc>
    <defs></defs>
    <g id="Page-1" stroke="none" stroke-width="1" fill="none" fill-rule="evenodd">
        <g id="Group" transform="translate(-2.000000, -2.000000)">
            <rect id="Rectangle" x="0" y="0" width="16" height="16"></rect>
            <path d="M13.71875,8.64063539 C13.71875,9.73438291 13.484375,10.7109428 13.015625,11.5703159 C12.546875,12.429689 11.8867186,13.1015621 11.0351562,13.5859361 C10.1835939,14.0703101 9.20312488,14.3124969 8.09375,14.3124969 C7.04687488,14.3124969 6.078125,14.0507786 5.1875,13.5273425 C4.296875,13.0039064 3.58984363,12.2968767 3.06640625,11.4062538 C2.54296887,10.5156309 2.28125,9.54688335 2.28125,8.50001073 C2.28125,7.45313811 2.54296887,6.48439053 3.06640625,5.59376766 C3.58984363,4.70314478 4.296875,3.9961151 5.1875,3.47267896 C6.078125,2.94924283 7.04687488,2.68752459 8.09375,2.68752459 C9.60937512,2.68752459 10.90625,3.195336 11.984375,4.21095845 L10.4140625,5.73439232 C9.91406262,5.25001836 9.3125,4.96095667 8.609375,4.86720689 C7.953125,4.77345711 7.30468738,4.86720689 6.6640625,5.14845622 C6.02343762,5.42970555 5.50781262,5.85157954 5.1171875,6.4140782 C4.6953125,7.02345175 4.484375,7.71876271 4.484375,8.50001073 C4.484375,9.17188425 4.6484375,9.7851638 4.9765625,10.3398501 C5.3046875,10.8945364 5.74218762,11.3398478 6.2890625,11.6757844 C6.83593738,12.011721 7.4375,12.1796895 8.09375,12.1796895 C8.796875,12.1796895 9.41406238,12.0234397 9.9453125,11.7109406 C10.3671875,11.4609411 10.71875,11.1250045 11,10.7031305 C11.2031251,10.3593812 11.3359374,10.0156322 11.3984375,9.67188293 L8.09375,9.67188293 L8.09375,7.65626274 L13.625,7.65626274 C13.6875001,8.00001204 13.71875,8.32813626 13.71875,8.64063539 Z" id="google" fill="#4B4B4B"></path>
        </g>
    </g>
</svg>